<?xml version="1.0" standalone="no"?>
<!DOCTYPE svg PUBLIC "-//W3C//DTD SVG 20010904//EN"
 "http://www.w3.org/TR/2001/REC-SVG-20010904/DTD/svg10.dtd">
<svg version="1.0" xmlns="http://www.w3.org/2000/svg"
 width="506.000000pt" height="506.000000pt" viewBox="0 0 506.000000 506.000000"
 preserveAspectRatio="xMidYMid meet">
<metadata>
Created by potrace 1.14, written by Peter Selinger 2001-2017
</metadata>
<g transform="translate(0.000000,506.000000) scale(0.100000,-0.100000)"
fill="#000000" stroke="none">
<path d="M2275 4942 c-4 -4 -39 -8 -125 -15 -14 -1 -27 -5 -30 -8 -3 -4 -18
-8 -35 -10 -16 -2 -34 -6 -40 -9 -5 -4 -19 -6 -30 -6 -11 1 -23 -3 -27 -8 -3
-5 -17 -11 -29 -13 -13 -2 -26 -8 -30 -15 -4 -6 -18 -10 -33 -10 -14 0 -26 -4
-26 -7 0 -4 -16 -13 -35 -20 -20 -7 -33 -17 -29 -23 4 -6 1 -8 -7 -6 -16 6
-87 -29 -107 -52 -12 -13 -13 -13 -6 0 7 14 -42 -24 -57 -43 -3 -5 -10 -8 -14
-7 -4 1 -19 -8 -33 -21 -15 -13 -29 -24 -32 -24 -11 0 -48 -44 -42 -49 3 -3 0
-6 -6 -6 -16 0 -72 -60 -72 -76 0 -8 -4 -14 -9 -14 -13 0 -73 -130 -67 -146 3
-7 0 -16 -6 -20 -7 -5 -8 -2 -3 6 5 9 4 11 -4 6 -8 -5 -9 -12 -2 -20 7 -9 5
-17 -9 -29 -11 -9 -20 -12 -20 -7 0 7 -4 7 -12 0 -7 -6 -24 -19 -37 -30 -13
-11 -20 -20 -16 -20 5 0 0 -6 -10 -14 -11 -8 -24 -12 -29 -9 -5 4 -6 1 -2 -6
5 -7 0 -18 -10 -26 -11 -8 -15 -15 -11 -15 5 0 -1 -12 -12 -26 -11 -15 -18
-31 -14 -37 3 -6 1 -7 -5 -3 -7 4 -14 -3 -18 -19 -3 -14 -9 -25 -13 -25 -8 0
-10 -9 -14 -54 -1 -13 -5 -22 -9 -19 -5 2 -8 1 -9 -4 0 -4 -3 -17 -6 -28 -2
-11 -5 -28 -6 -37 -1 -10 -5 -18 -9 -18 -4 0 -7 -8 -7 -17 0 -21 -4 -44 -12
-58 -3 -5 -5 -22 -4 -37 0 -16 -2 -28 -5 -28 -9 0 -6 -32 3 -48 5 -7 3 -10 -5
-7 -10 4 -13 -5 -12 -32 0 -21 -3 -44 -9 -50 -6 -9 -5 -13 3 -13 9 0 9 -4 -1
-17 -8 -9 -9 -14 -3 -10 6 3 11 0 11 -8 0 -8 -4 -12 -9 -9 -11 7 -10 -3 3 -28
6 -11 7 -18 1 -15 -8 6 -10 -89 -2 -118 1 -5 1 -12 0 -15 -6 -17 -7 -40 -1
-40 4 0 8 -19 9 -42 4 -83 6 -98 16 -98 5 0 7 -3 3 -6 -3 -3 -2 -17 3 -30 6
-14 12 -36 14 -51 3 -14 11 -30 17 -34 6 -4 9 -11 5 -17 -3 -6 1 -17 10 -26 8
-9 12 -20 9 -26 -3 -5 -1 -10 4 -10 6 0 10 -3 9 -7 -4 -13 24 -73 34 -73 5 0
6 -5 3 -10 -4 -7 -11 -7 -18 -2 -24 19 -102 -11 -93 -35 3 -7 2 -13 -3 -13 -8
0 -20 -27 -26 -60 -5 -33 -10 -45 -20 -52 -6 -5 -6 -8 2 -8 6 0 9 -9 5 -22 -3
-12 -1 -19 5 -15 5 3 10 0 10 -8 0 -8 -4 -15 -9 -15 -5 0 -6 -5 -2 -11 4 -7 7
-25 6 -40 0 -16 4 -29 11 -29 8 0 8 -3 -1 -12 -17 -17 -15 -31 4 -24 13 5 14
3 7 -6 -6 -7 -9 -20 -8 -28 6 -34 11 -45 20 -52 6 -5 5 -8 -3 -8 -9 0 -10 -5
-2 -19 5 -11 11 -36 12 -55 2 -20 5 -36 8 -36 3 0 6 -8 7 -17 3 -45 8 -63 17
-63 5 0 7 -3 3 -6 -3 -3 -2 -16 3 -28 11 -29 -5 -58 -20 -36 -5 8 -10 10 -10
4 0 -7 -12 -10 -27 -7 -34 5 -40 5 -75 -1 -16 -2 -28 0 -28 6 0 6 -6 6 -15 -2
-8 -6 -18 -9 -23 -6 -6 3 -15 -1 -22 -9 -7 -8 -16 -12 -20 -10 -5 3 -17 -8
-26 -25 -10 -16 -21 -30 -24 -30 -7 0 -5 -159 3 -166 3 -3 2 -16 -3 -28 -5
-13 -4 -30 2 -40 8 -14 7 -17 -1 -12 -8 5 -8 0 -2 -17 5 -13 5 -30 1 -37 -5
-8 -6 -19 -2 -24 9 -15 12 -51 15 -178 1 -60 4 -108 8 -108 3 0 5 -37 4 -83 0
-45 3 -87 8 -94 4 -6 4 -14 -1 -17 -5 -3 -6 -23 -2 -46 4 -23 3 -40 -2 -40 -5
0 -6 -6 -1 -12 4 -7 8 -25 9 -40 1 -16 3 -31 4 -35 6 -19 4 -50 -3 -65 -4 -10
-4 -18 0 -18 5 0 9 -26 10 -57 2 -125 10 -220 18 -233 5 -8 4 -11 -2 -7 -7 4
-10 -4 -9 -21 1 -32 -52 -124 -67 -115 -5 3 -7 0 -5 -8 3 -8 -4 -22 -14 -31
-12 -10 -17 -22 -12 -29 4 -7 3 -10 -2 -7 -5 3 -15 0 -22 -8 -7 -8 -8 -14 -3
-14 6 0 -1 -11 -14 -25 -14 -13 -25 -31 -25 -39 0 -8 -10 -22 -22 -30 -12 -9
-19 -16 -14 -16 5 0 1 -11 -8 -25 -9 -14 -14 -31 -10 -37 5 -7 3 -8 -6 -3 -10
6 -12 3 -8 -13 4 -12 2 -20 -3 -16 -5 3 -9 -4 -9 -16 0 -12 -4 -19 -8 -16 -5
3 -8 -8 -7 -24 1 -17 -2 -30 -6 -30 -4 0 -6 -9 -4 -20 2 -11 0 -20 -6 -20 -5
0 -9 -13 -9 -29 0 -16 -6 -32 -12 -34 -10 -4 -10 -6 0 -6 10 -1 10 -6 1 -22
-8 -16 -8 -20 1 -14 9 6 9 3 1 -13 l-11 -20 1978 -1 c1087 0 1985 2 1994 5 14
4 15 10 7 31 -5 14 -7 28 -4 31 2 3 -1 12 -8 20 -10 13 -9 15 3 8 13 -7 13 -6
0 6 -8 7 -14 23 -12 36 2 12 -1 22 -7 22 -6 0 -8 6 -5 14 3 8 0 17 -5 21 -6 3
-9 11 -5 16 3 6 -2 19 -11 29 -9 10 -14 23 -11 29 3 5 3 11 -1 13 -5 1 -19 26
-33 53 -14 28 -32 56 -40 63 -13 12 -13 13 0 6 12 -7 13 -5 3 8 -7 8 -10 18
-6 21 3 4 -1 7 -10 7 -16 0 -40 32 -35 47 2 5 -14 30 -35 55 -21 26 -36 52
-32 58 3 5 2 10 -2 10 -5 0 -9 9 -10 20 -1 13 2 18 10 13 9 -5 8 -2 0 9 -7 8
-10 17 -7 21 3 3 6 43 8 89 1 45 4 88 6 93 3 6 5 61 5 122 0 62 2 113 5 113 3
0 5 16 5 35 0 19 -4 35 -10 35 -5 0 -4 4 4 9 8 5 12 18 8 29 -2 12 0 23 7 26
6 3 7 5 0 5 -6 1 -9 20 -7 48 2 27 5 81 6 120 1 40 4 73 7 73 3 0 5 50 4 110
0 61 3 113 8 116 5 3 4 12 -3 20 -9 11 -9 14 1 14 9 0 10 3 1 13 -8 10 -7 17
2 26 9 9 9 14 -3 21 -8 5 -10 10 -5 10 6 0 12 31 14 73 1 39 4 83 5 97 1 14
-2 30 -6 37 -5 6 -4 14 2 18 7 4 3 19 -12 43 -24 40 -38 53 -49 46 -4 -2 -9 2
-12 10 -4 10 -24 13 -77 12 -39 -2 -73 1 -76 6 -3 5 -12 4 -20 -3 -11 -9 -14
-8 -14 2 0 12 -2 12 -9 1 -6 -10 -10 -7 -13 12 -3 14 0 27 7 30 7 2 11 18 10
35 -1 17 3 31 8 31 6 0 7 3 4 6 -3 4 -2 16 4 27 9 15 8 18 -3 11 -10 -6 -11
-5 -1 8 7 8 10 18 6 21 -3 4 -2 7 4 7 5 0 11 19 12 42 2 24 3 49 4 56 0 6 5
12 11 12 6 0 4 5 -4 10 -11 7 -11 10 -2 10 7 0 10 5 7 10 -3 6 -1 10 4 10 13
0 10 22 -4 32 -6 5 -6 8 1 8 6 0 10 19 10 44 -1 24 3 42 7 39 4 -2 6 7 3 21
-3 14 0 29 6 32 7 4 7 9 0 13 -6 4 -12 26 -13 49 -2 23 -7 42 -12 42 -5 0 -7
6 -4 14 3 8 -1 17 -8 20 -9 3 -12 12 -8 22 4 12 3 15 -5 10 -7 -4 -12 -2 -12
4 0 7 -7 10 -15 6 -8 -3 -15 -2 -15 3 0 16 -59 -1 -65 -19 -3 -10 -13 -17 -22
-16 -22 4 -22 43 0 77 10 15 20 37 22 50 3 13 9 25 15 27 6 2 8 8 4 13 -3 5
-1 9 3 9 5 0 10 9 11 20 4 43 6 50 13 50 4 0 6 9 4 20 -2 11 0 18 6 15 9 -6
12 5 11 43 -1 12 3 20 8 17 5 -3 7 6 4 20 -2 14 0 25 6 25 6 0 8 4 5 10 -3 5
-1 19 6 31 9 17 8 20 -3 13 -10 -6 -11 -5 -1 7 16 20 17 31 1 40 -7 5 -8 9 -2
9 11 0 13 134 1 146 -4 4 -2 13 4 20 7 8 7 14 -1 19 -8 5 -8 11 1 21 9 11 9
14 0 14 -7 0 -9 4 -6 10 3 5 0 20 -6 32 -11 21 -11 22 5 9 14 -12 16 -12 10 3
-3 9 -11 16 -18 16 -6 0 -4 5 4 10 8 5 10 10 3 10 -6 0 -9 9 -6 20 3 13 0 20
-8 20 -11 0 -11 2 1 10 8 5 10 10 4 10 -6 0 -10 14 -9 30 1 17 -2 30 -7 30 -5
0 -7 4 -3 9 3 5 1 12 -5 16 -7 4 -6 13 1 27 8 15 8 19 0 14 -7 -4 -11 1 -11
13 0 11 -4 22 -9 25 -5 4 -8 17 -6 31 1 14 -2 25 -7 25 -5 0 -7 4 -3 9 3 5 0
13 -6 16 -5 4 -8 13 -5 21 3 8 1 14 -5 14 -6 0 -7 5 -4 10 3 6 1 10 -4 10 -6
0 -10 3 -9 8 1 4 -4 23 -11 42 -8 19 -13 38 -12 43 0 4 -3 7 -9 7 -5 0 -10 8
-10 17 0 9 -7 24 -15 33 -9 10 -18 28 -20 41 -3 13 -14 32 -26 42 -13 11 -16
17 -8 17 8 0 2 8 -12 18 -14 9 -24 23 -21 31 3 8 0 11 -7 7 -6 -4 -11 -1 -11
8 0 8 -8 20 -17 25 -10 6 -15 11 -10 11 4 0 -13 20 -38 45 -25 25 -45 50 -45
55 0 6 -4 9 -9 7 -5 -1 -18 9 -30 22 -12 13 -21 21 -21 18 0 -4 -13 6 -28 21
-16 15 -39 35 -53 45 -13 9 -39 28 -58 42 -19 13 -38 22 -43 19 -5 -3 -7 -2
-6 3 2 4 1 8 -2 8 -3 0 -18 10 -34 22 -16 13 -32 20 -37 17 -5 -3 -9 -1 -9 4
0 5 -22 19 -50 31 -27 12 -50 25 -50 30 0 4 -11 7 -25 6 -14 -2 -25 1 -25 7 0
6 -7 7 -16 4 -8 -3 -13 -2 -10 3 7 11 -22 23 -35 15 -5 -3 -9 0 -9 5 0 6 -3
10 -7 10 -5 -1 -11 0 -15 1 -5 1 -11 3 -15 4 -5 1 -19 8 -32 15 -19 11 -22 11
-16 -1 6 -10 5 -11 -6 0 -7 6 -21 12 -31 12 -10 0 -18 3 -18 8 0 4 -16 8 -36
9 -19 1 -42 7 -50 14 -11 9 -14 9 -14 -2 0 -12 -2 -12 -9 0 -5 8 -18 12 -30 8
-12 -3 -21 -2 -21 2 0 5 -12 9 -27 10 -37 2 -78 8 -78 11 0 1 -13 3 -30 3 -16
1 -36 6 -44 11 -10 7 -12 6 -6 -4 6 -10 4 -11 -6 -4 -8 5 -25 10 -37 12 -17 2
-22 -1 -16 -10 6 -10 5 -10 -7 -1 -10 8 -63 11 -167 10 -84 0 -155 -3 -157 -5z"/>
</g>
</svg>
