<svg width="50" height="29" viewBox="0 0 50 29" fill="none" xmlns="http://www.w3.org/2000/svg">
<path d="M0.988144 1.00462C1.6469 0.334873 2.42688 0 3.32806 0C4.22749 0 5.00659 0.334873 5.66535 1.00462L24.9671 20.6282L44.3347 0.937644C44.9495 0.312548 45.7181 0 46.6403 0C47.5626 0 48.3531 0.334873 49.0119 1.00462C49.6706 1.67436 50 2.46734 50 3.38356C50 4.29798 49.6706 5.09007 49.0119 5.75982L26.8116 28.2633C26.5481 28.5312 26.2626 28.7214 25.9552 28.8339C25.6478 28.9446 25.3184 29 24.9671 29C24.6157 29 24.2863 28.9446 23.9789 28.8339C23.6715 28.7214 23.386 28.5312 23.1225 28.2633L0.922268 5.69284C0.307423 5.06774 0 4.29798 0 3.38356C0 2.46734 0.32938 1.67436 0.988144 1.00462Z" fill="#49D6BC"/>
</svg>
