<svg width="50" height="88" viewBox="0 0 50 88" fill="none" xmlns="http://www.w3.org/2000/svg">
<path d="M48.2679 1.72439C49.4226 2.87399 50 4.23513 50 5.80779C50 7.37737 49.4226 8.73697 48.2679 9.88657L14.4342 43.57L48.3834 77.3683C49.4611 78.4413 50 79.7825 50 81.3919C50 83.0013 49.4226 84.3809 48.2679 85.5305C47.1132 86.6801 45.746 87.2549 44.1663 87.2549C42.5897 87.2549 41.224 86.6801 40.0693 85.5305L1.27021 46.7888C0.808315 46.329 0.480373 45.8308 0.286377 45.2944C0.0954627 44.7579 3.76546e-06 44.1831 3.81906e-06 43.5699C3.87266e-06 42.9568 0.0954629 42.382 0.286377 41.8455C0.480374 41.3091 0.808316 40.8109 1.27021 40.3511L40.1848 1.60943C41.2625 0.536468 42.5897 -1.59066e-05 44.1663 -1.57688e-05C45.746 -1.56307e-05 47.1132 0.574791 48.2679 1.72439Z" fill="#49D6BC"/>
</svg>
